<svg xmlns="http://www.w3.org/2000/svg" xmlns:xlink="http://www.w3.org/1999/xlink" fill="none" version="1.1" width="30" height="30" viewBox="0 0 30 30"><defs><clipPath id="master_svg0_31_4645"><rect x="0" y="0" width="30" height="30" rx="0"/></clipPath></defs><g clip-path="url(#master_svg0_31_4645)"><g><path d="M23.75,8.75C23.75,8.75,24.9959,8.85211,24.9959,8.85211C25.0244,8.504010000000001,24.906,8.159849999999999,24.6693,7.90299C24.4326,7.64612,24.0993,7.5,23.75,7.5C23.75,7.5,23.75,8.75,23.75,8.75ZM22.5,24C22.5,24,21.2541,23.8979,21.2541,23.8979C21.2514,23.9319,21.25,23.9659,21.25,24C21.25,24,22.5,24,22.5,24ZM7.5,24C7.5,24,8.75,24,8.75,24C8.75,23.9659,8.7486,23.9319,8.74583,23.8979C8.74583,23.8979,7.5,24,7.5,24ZM6.25,8.75C6.25,8.75,6.25,7.5,6.25,7.5C5.900733,7.5,5.567393,7.64612,5.330724,7.90299C5.0940569,8.159849999999999,4.9756532,8.504010000000001,5.00418068,8.85211C5.00418068,8.85211,6.25,8.75,6.25,8.75ZM9.46429,8.75C9.46429,9.440349999999999,10.02393,10,10.71429,10C11.40464,10,11.96429,9.440349999999999,11.96429,8.75C11.96429,8.75,9.46429,8.75,9.46429,8.75ZM12.857140000000001,3.75C12.857140000000001,3.75,12.857140000000001,2.5,12.857140000000001,2.5C12.857140000000001,2.5,12.857140000000001,3.75,12.857140000000001,3.75ZM17.142899999999997,3.75C17.142899999999997,3.75,17.142899999999997,2.5,17.142899999999997,2.5C17.142899999999997,2.5,17.142899999999997,3.75,17.142899999999997,3.75ZM18.0357,8.75C18.0357,9.440349999999999,18.595399999999998,10,19.285800000000002,10C19.976100000000002,10,20.535800000000002,9.440349999999999,20.535800000000002,8.75C20.535800000000002,8.75,18.0357,8.75,18.0357,8.75ZM22.5041,8.64789C22.5041,8.64789,21.2541,23.8979,21.2541,23.8979C21.2541,23.8979,23.7459,24.1021,23.7459,24.1021C23.7459,24.1021,24.9959,8.85211,24.9959,8.85211C24.9959,8.85211,22.5041,8.64789,22.5041,8.64789ZM21.25,24C21.25,24.2844,21.1419,24.5455,20.9673,24.7289C20.9673,24.7289,22.7775,26.453,22.7775,26.453C23.4066,25.7925,23.75,24.9091,23.75,24C23.75,24,21.25,24,21.25,24ZM20.9673,24.7289C20.7945,24.9102,20.5738,25,20.357100000000003,25C20.357100000000003,25,20.357100000000003,27.5,20.357100000000003,27.5C21.2773,27.5,22.1465,27.1156,22.7775,26.453C22.7775,26.453,20.9673,24.7289,20.9673,24.7289ZM20.357100000000003,25C20.357100000000003,25,9.64287,25,9.64287,25C9.64287,25,9.64287,27.5,9.64287,27.5C9.64287,27.5,20.357100000000003,27.5,20.357100000000003,27.5C20.357100000000003,27.5,20.357100000000003,25,20.357100000000003,25ZM9.64287,25C9.42629,25,9.20548,24.9102,9.0328,24.7289C9.0328,24.7289,7.22246,26.453,7.22246,26.453C7.85352,27.1156,8.72279,27.5,9.64287,27.5C9.64287,27.5,9.64287,25,9.64287,25ZM9.0328,24.7289C8.85815,24.5455,8.75,24.2844,8.75,24C8.75,24,6.25,24,6.25,24C6.25,24.9091,6.59338,25.7925,7.22246,26.453C7.22246,26.453,9.0328,24.7289,9.0328,24.7289ZM8.74583,23.8979C8.74583,23.8979,7.49583,8.64789,7.49583,8.64789C7.49583,8.64789,5.00418068,8.85211,5.00418068,8.85211C5.00418068,8.85211,6.25418,24.1021,6.25418,24.1021C6.25418,24.1021,8.74583,23.8979,8.74583,23.8979ZM6.25,10C6.25,10,23.75,10,23.75,10C23.75,10,23.75,7.5,23.75,7.5C23.75,7.5,6.25,7.5,6.25,7.5C6.25,7.5,6.25,10,6.25,10ZM11.96429,8.75C11.96429,8.75,11.96429,6,11.96429,6C11.96429,6,9.46429,6,9.46429,6C9.46429,6,9.46429,8.75,9.46429,8.75C9.46429,8.75,11.96429,8.75,11.96429,8.75ZM11.96429,6C11.96429,5.7156400000000005,12.07244,5.45446,12.24709,5.2710799999999995C12.24709,5.2710799999999995,10.43674,3.54694,10.43674,3.54694C9.80767,4.20747,9.46429,5.09089,9.46429,6C9.46429,6,11.96429,6,11.96429,6ZM12.24709,5.2710799999999995C12.41977,5.08977,12.64057,5,12.857140000000001,5C12.857140000000001,5,12.857140000000001,2.5,12.857140000000001,2.5C11.93708,2.5,11.0678,2.884334,10.43674,3.54694C10.43674,3.54694,12.24709,5.2710799999999995,12.24709,5.2710799999999995ZM12.857140000000001,5C12.857140000000001,5,17.142899999999997,5,17.142899999999997,5C17.142899999999997,5,17.142899999999997,2.5,17.142899999999997,2.5C17.142899999999997,2.5,12.857140000000001,2.5,12.857140000000001,2.5C12.857140000000001,2.5,12.857140000000001,5,12.857140000000001,5ZM17.142899999999997,5C17.3594,5,17.580199999999998,5.08977,17.7529,5.2710799999999995C17.7529,5.2710799999999995,19.563299999999998,3.54694,19.563299999999998,3.54694C18.932299999999998,2.884334,18.0629,2.5,17.142899999999997,2.5C17.142899999999997,2.5,17.142899999999997,5,17.142899999999997,5ZM17.7529,5.2710799999999995C17.927599999999998,5.45446,18.0357,5.7156400000000005,18.0357,6C18.0357,6,20.535800000000002,6,20.535800000000002,6C20.535800000000002,5.09089,20.1924,4.20747,19.563299999999998,3.54694C19.563299999999998,3.54694,17.7529,5.2710799999999995,17.7529,5.2710799999999995ZM18.0357,6C18.0357,6,18.0357,8.75,18.0357,8.75C18.0357,8.75,20.535800000000002,8.75,20.535800000000002,8.75C20.535800000000002,8.75,20.535800000000002,6,20.535800000000002,6C20.535800000000002,6,18.0357,6,18.0357,6Z" fill="#B6E0FF" fill-opacity="1"/></g><g><path d="M5,7.5C4.3096440000000005,7.5,3.75,8.059644,3.75,8.75C3.75,9.44036,4.3096440000000005,10,5,10C5,10,5,7.5,5,7.5ZM25,10C25.6904,10,26.25,9.44036,26.25,8.75C26.25,8.059644,25.6904,7.5,25,7.5C25,7.5,25,10,25,10ZM5,10C5,10,7.22223,10,7.22223,10C7.22223,10,7.22223,7.5,7.22223,7.5C7.22223,7.5,5,7.5,5,7.5C5,7.5,5,10,5,10ZM7.22223,10C7.22223,10,25,10,25,10C25,10,25,7.5,25,7.5C25,7.5,7.22223,7.5,7.22223,7.5C7.22223,7.5,7.22223,10,7.22223,10Z" fill="#B6E0FF" fill-opacity="1"/></g><g><path d="M13.75,13.75C13.75,13.059644,13.19036,12.5,12.5,12.5C11.809644,12.5,11.25,13.059644,11.25,13.75C11.25,13.75,13.75,13.75,13.75,13.75ZM11.25,20C11.25,20.690350000000002,11.809644,21.25,12.5,21.25C13.19036,21.25,13.75,20.690350000000002,13.75,20C13.75,20,11.25,20,11.25,20ZM11.25,13.75C11.25,13.75,11.25,20,11.25,20C11.25,20,13.75,20,13.75,20C13.75,20,13.75,13.75,13.75,13.75C13.75,13.75,11.25,13.75,11.25,13.75Z" fill="#B6E0FF" fill-opacity="1"/></g><g><path d="M18.75,13.75C18.75,13.059644,18.19036,12.5,17.5,12.5C16.809644,12.5,16.25,13.059644,16.25,13.75C16.25,13.75,18.75,13.75,18.75,13.75ZM16.25,20C16.25,20.690350000000002,16.809644,21.25,17.5,21.25C18.19036,21.25,18.75,20.690350000000002,18.75,20C18.75,20,16.25,20,16.25,20ZM16.25,13.75C16.25,13.75,16.25,20,16.25,20C16.25,20,18.75,20,18.75,20C18.75,20,18.75,13.75,18.75,13.75C18.75,13.75,16.25,13.75,16.25,13.75Z" fill="#B6E0FF" fill-opacity="1"/></g></g></svg>