<svg xmlns="http://www.w3.org/2000/svg" xmlns:xlink="http://www.w3.org/1999/xlink" fill="none" version="1.1" width="20" height="16" viewBox="0 0 20 16"><defs><clipPath id="master_svg0_1_0680"><rect x="0" y="0" width="20" height="16" rx="0"/></clipPath></defs><g clip-path="url(#master_svg0_1_0680)"><g><path d="M16.05,6.3375C16.05,6.3375,15.45,5.5375,15.45,5.5375C15.45,5.5375,13.95,6.6625,13.95,6.6625C13.95,6.6625,14.55,7.4625,14.55,7.4625C14.55,7.4625,16.05,6.3375,16.05,6.3375C16.05,6.3375,16.05,6.3375,16.05,6.3375ZM18,6C18.4156,6,18.8,5.875,19.1187,5.65938C19.3312,5.51562,19.5156,5.33125,19.6594,5.11875C19.875,4.8,20,4.41563,20,4C20,3.58437,19.875,3.2,19.6594,2.88125C19.5875,2.775,19.5063,2.675,19.4156,2.58437C19.325,2.49375,19.225,2.4125,19.1187,2.34063C18.8,2.125,18.4156,2,18,2C17.5844,2,17.2,2.125,16.8813,2.34063C16.6688,2.48438,16.4844,2.66875,16.3406,2.88125C16.125,3.2,16,3.58437,16,4C16,5.10313,16.8969,6,18,6C18,6,18,6,18,6ZM18,3C18.55,3,19,3.45,19,4C19,4.55,18.55,5,18,5C17.45,5,17,4.55,17,4C17,3.45,17.45,3,18,3C18,3,18,3,18,3ZM3.11875,7.84062C2.8,7.625,2.41563,7.5,2,7.5C1.58438,7.5,1.2,7.625,0.88125,7.84062C0.66875,7.98438,0.484375,8.16875,0.340625,8.38125C0.125,8.7,0,9.08438,0,9.5C0,10.6031,0.896875,11.5,2,11.5C3.10313,11.5,4,10.6031,4,9.5C4,9.08438,3.875,8.7,3.65937,8.38125C3.51562,8.16875,3.33125,7.98438,3.11875,7.84062C3.11875,7.84062,3.11875,7.84062,3.11875,7.84062C3.11875,7.84062,3.11875,7.84062,3.11875,7.84062ZM2,10.5C1.45,10.5,1,10.05,1,9.5C1,8.95,1.45,8.5,2,8.5C2.55,8.5,3,8.95,3,9.5C3,10.05,2.55,10.5,2,10.5C2,10.5,2,10.5,2,10.5ZM4.75,10C4.75,10,6.25,10,6.25,10C6.25,10,6.25,9,6.25,9C6.25,9,4.75,9,4.75,9C4.75,9,4.75,10,4.75,10C4.75,10,4.75,10,4.75,10ZM19.4156,12.5844C19.325,12.4938,19.225,12.4125,19.1187,12.3406C18.8,12.125,18.4156,12,18,12C17.5844,12,17.2,12.125,16.8813,12.3406C16.7781,12.4094,16.6844,12.4875,16.5969,12.575C16.5969,12.575,13.7281,10.8531,13.7281,10.8531C13.9031,10.4375,14,9.97812,14,9.5C14,7.56563,12.4344,6,10.5,6C10.1469,6,9.81562,6.06875,9.49375,6.1625C9.49375,6.1625,8.26562,3.53437,8.26562,3.53437C8.7125,3.16875,9,2.62188,9,2C9,1.58438,8.875,1.2,8.65938,0.88125C8.51562,0.66875,8.33125,0.484375,8.11875,0.340625C7.8,0.125,7.41563,0,7,0C6.58437,0,6.2,0.125,5.88125,0.340625C5.66875,0.484375,5.48438,0.66875,5.34062,0.88125C5.125,1.2,5,1.58438,5,2C5,3.10313,5.89687,4,7,4C7.125,4,7.24687,3.98438,7.36562,3.9625C7.36562,3.9625,8.58438,6.575,8.58438,6.575C7.63125,7.2,7,8.275,7,9.5C7,11.4344,8.56563,13,10.5,13C11.5938,13,12.5562,12.4875,13.2,11.7031C13.2,11.7031,16.0875,13.4344,16.0875,13.4344C16.0344,13.6156,16.0031,13.8031,16.0031,14C16.0031,15.1031,16.9,16,18.0031,16C18.4187,16,18.8031,15.875,19.1219,15.6594C19.3344,15.5156,19.5188,15.3312,19.6625,15.1187C19.875,14.8,20,14.4156,20,14C20,13.5844,19.875,13.2,19.6594,12.8813C19.5875,12.775,19.5031,12.675,19.4156,12.5844C19.4156,12.5844,19.4156,12.5844,19.4156,12.5844C19.4156,12.5844,19.4156,12.5844,19.4156,12.5844ZM7,3C6.45,3,6,2.55,6,2C6,1.45,6.45,1,7,1C7.55,1,8,1.45,8,2C8,2.55,7.55,3,7,3C7,3,7,3,7,3ZM10.5,12C9.12187,12,8,10.8781,8,9.5C8,8.12187,9.12187,7,10.5,7C11.8781,7,13,8.12187,13,9.5C13,10.8781,11.8781,12,10.5,12C10.5,12,10.5,12,10.5,12ZM18,15C17.45,15,17,14.55,17,14C17,13.45,17.45,13,18,13C18.55,13,19,13.45,19,14C19,14.55,18.55,15,18,15C18,15,18,15,18,15Z" fill="#000000" fill-opacity="1"/></g></g></svg>