<svg xmlns="http://www.w3.org/2000/svg" xmlns:xlink="http://www.w3.org/1999/xlink" fill="none" version="1.1" width="12" height="16" viewBox="0 0 12 16"><defs><clipPath id="master_svg0_1_0600"><rect x="0" y="0" width="12" height="16" rx="0"/></clipPath></defs><g clip-path="url(#master_svg0_1_0600)"><g><path d="M11.5594,3.060603839578107C11.5594,3.060603839578107,8.9375,0.438728839578107,8.9375,0.438728839578107C8.65625,0.157478839578107,8.275,-0.0018961604218930006,7.87813,-0.0018961604218930006C7.87813,-0.0018961604218930006,1.5,-0.0018961604218930006,1.5,-0.0018961604218930006C0.671875,0.0012288395781069996,0,0.673103839578107,0,1.501223839578107C0,1.501223839578107,0,14.501203839578107,0,14.501203839578107C0,15.329303839578108,0.671875,16.001203839578107,1.5,16.001203839578107C1.5,16.001203839578107,10.5,16.001203839578107,10.5,16.001203839578107C11.3281,16.001203839578107,12,15.329303839578108,12,14.501203839578107C12,14.501203839578107,12,4.123103839578107,12,4.123103839578107C12,3.726223839578107,11.8406,3.341853839578107,11.5594,3.060603839578107C11.5594,3.060603839578107,11.5594,3.060603839578107,11.5594,3.060603839578107ZM10.8531,3.769973839578107C10.9187,3.835603839578107,10.9625,3.913723839578107,10.9844,4.001223839578107C10.9844,4.001223839578107,8,4.001223839578107,8,4.001223839578107C8,4.001223839578107,8,1.016853839578107,8,1.016853839578107C8.0875,1.038723839578107,8.16562,1.082473839578107,8.23125,1.148103839578107C8.23125,1.148103839578107,10.8531,3.769973839578107,10.8531,3.769973839578107C10.8531,3.769973839578107,10.8531,3.769973839578107,10.8531,3.769973839578107ZM10.5,15.001203839578107C10.5,15.001203839578107,1.5,15.001203839578107,1.5,15.001203839578107C1.225,15.001203839578107,1,14.776203839578107,1,14.501203839578107C1,14.501203839578107,1,1.501223839578107,1,1.501223839578107C1,1.226223839578107,1.225,1.001223839578107,1.5,1.001223839578107C1.5,1.001223839578107,7,1.001223839578107,7,1.001223839578107C7,1.001223839578107,7,4.251223839578107,7,4.251223839578107C7,4.666853839578107,7.33437,5.001223839578107,7.75,5.001223839578107C7.75,5.001223839578107,11,5.001223839578107,11,5.001223839578107C11,5.001223839578107,11,14.501203839578107,11,14.501203839578107C11,14.776203839578107,10.775,15.001203839578107,10.5,15.001203839578107C10.5,15.001203839578107,10.5,15.001203839578107,10.5,15.001203839578107ZM9,7.376223839578107C9,7.376223839578107,9,7.626223839578107,9,7.626223839578107C9,7.832473839578107,8.83125,8.001223839578106,8.625,8.001223839578106C8.625,8.001223839578106,3.375,8.001223839578106,3.375,8.001223839578106C3.16875,8.001223839578106,3,7.832473839578107,3,7.626223839578107C3,7.626223839578107,3,7.376223839578107,3,7.376223839578107C3,7.169973839578107,3.16875,7.001223839578107,3.375,7.001223839578107C3.375,7.001223839578107,8.625,7.001223839578107,8.625,7.001223839578107C8.83125,7.001223839578107,9,7.169973839578107,9,7.376223839578107C9,7.376223839578107,9,7.376223839578107,9,7.376223839578107ZM9,9.376223839578106C9,9.376223839578106,9,9.626223839578106,9,9.626223839578106C9,9.832473839578107,8.83125,10.001203839578107,8.625,10.001203839578107C8.625,10.001203839578107,3.375,10.001203839578107,3.375,10.001203839578107C3.16875,10.001203839578107,3,9.832473839578107,3,9.626223839578106C3,9.626223839578106,3,9.376223839578106,3,9.376223839578106C3,9.169973839578107,3.16875,9.001223839578106,3.375,9.001223839578106C3.375,9.001223839578106,8.625,9.001223839578106,8.625,9.001223839578106C8.83125,9.001223839578106,9,9.169973839578107,9,9.376223839578106C9,9.376223839578106,9,9.376223839578106,9,9.376223839578106ZM9,11.376203839578107C9,11.376203839578107,9,11.626203839578107,9,11.626203839578107C9,11.832503839578107,8.83125,12.001203839578107,8.625,12.001203839578107C8.625,12.001203839578107,3.375,12.001203839578107,3.375,12.001203839578107C3.16875,12.001203839578107,3,11.832503839578107,3,11.626203839578107C3,11.626203839578107,3,11.376203839578107,3,11.376203839578107C3,11.170003839578108,3.16875,11.001203839578107,3.375,11.001203839578107C3.375,11.001203839578107,8.625,11.001203839578107,8.625,11.001203839578107C8.83125,11.001203839578107,9,11.170003839578108,9,11.376203839578107C9,11.376203839578107,9,11.376203839578107,9,11.376203839578107Z" fill="#000000" fill-opacity="1"/></g></g></svg>