<svg xmlns="http://www.w3.org/2000/svg" xmlns:xlink="http://www.w3.org/1999/xlink" fill="none" version="1.1" width="31" height="40" viewBox="0 0 31 40"><defs><clipPath id="master_svg0_46_2322"><rect x="0" y="0" width="31" height="40" rx="0"/></clipPath></defs><g clip-path="url(#master_svg0_46_2322)"><g><path d="M3.8749982470703124,26.666656494140625C3.1616272470703124,26.666656494140625,2.5833282470703125,27.412848494140626,2.5833282470703125,28.333326494140625C2.5833282470703125,29.253796494140627,3.1616272470703124,29.999986494140625,3.8749982470703124,29.999986494140625C3.8749982470703124,29.999986494140625,3.8749982470703124,26.666656494140625,3.8749982470703124,26.666656494140625C3.8749982470703124,26.666656494140625,3.8749982470703124,26.666656494140625,3.8749982470703124,26.666656494140625ZM27.12502824707031,29.999986494140625C27.83842824707031,29.999986494140625,28.416628247070314,29.253796494140627,28.416628247070314,28.333326494140625C28.416628247070314,27.412848494140626,27.83842824707031,26.666656494140625,27.12502824707031,26.666656494140625C27.12502824707031,26.666656494140625,27.12502824707031,29.999986494140625,27.12502824707031,29.999986494140625C27.12502824707031,29.999986494140625,27.12502824707031,29.999986494140625,27.12502824707031,29.999986494140625ZM3.8749982470703124,29.999986494140625C3.8749982470703124,29.999986494140625,27.12502824707031,29.999986494140625,27.12502824707031,29.999986494140625C27.12502824707031,29.999986494140625,27.12502824707031,26.666656494140625,27.12502824707031,26.666656494140625C27.12502824707031,26.666656494140625,3.8749982470703124,26.666656494140625,3.8749982470703124,26.666656494140625C3.8749982470703124,26.666656494140625,3.8749982470703124,29.999986494140625,3.8749982470703124,29.999986494140625C3.8749982470703124,29.999986494140625,3.8749982470703124,29.999986494140625,3.8749982470703124,29.999986494140625Z" fill="#003465" fill-opacity="1"/></g><g><path d="M3.8749982470703124,18.333343505859375C3.1616272470703124,18.333343505859375,2.5833282470703125,19.079535505859376,2.5833282470703125,20.000013505859375C2.5833282470703125,20.920483505859377,3.1616272470703124,21.666673505859375,3.8749982470703124,21.666673505859375C3.8749982470703124,21.666673505859375,3.8749982470703124,18.333343505859375,3.8749982470703124,18.333343505859375C3.8749982470703124,18.333343505859375,3.8749982470703124,18.333343505859375,3.8749982470703124,18.333343505859375ZM27.12502824707031,21.666673505859375C27.83842824707031,21.666673505859375,28.416628247070314,20.920483505859377,28.416628247070314,20.000013505859375C28.416628247070314,19.079535505859376,27.83842824707031,18.333343505859375,27.12502824707031,18.333343505859375C27.12502824707031,18.333343505859375,27.12502824707031,21.666673505859375,27.12502824707031,21.666673505859375C27.12502824707031,21.666673505859375,27.12502824707031,21.666673505859375,27.12502824707031,21.666673505859375ZM3.8749982470703124,21.666673505859375C3.8749982470703124,21.666673505859375,27.12502824707031,21.666673505859375,27.12502824707031,21.666673505859375C27.12502824707031,21.666673505859375,27.12502824707031,18.333343505859375,27.12502824707031,18.333343505859375C27.12502824707031,18.333343505859375,3.8749982470703124,18.333343505859375,3.8749982470703124,18.333343505859375C3.8749982470703124,18.333343505859375,3.8749982470703124,21.666673505859375,3.8749982470703124,21.666673505859375C3.8749982470703124,21.666673505859375,3.8749982470703124,21.666673505859375,3.8749982470703124,21.666673505859375Z" fill="#003465" fill-opacity="1"/></g><g><path d="M3.8749982470703124,10C3.1616272470703124,10,2.5833282470703125,10.746192,2.5833282470703125,11.66667C2.5833282470703125,12.58714,3.1616272470703124,13.33333,3.8749982470703124,13.33333C3.8749982470703124,13.33333,3.8749982470703124,10,3.8749982470703124,10C3.8749982470703124,10,3.8749982470703124,10,3.8749982470703124,10ZM27.12502824707031,13.33333C27.83842824707031,13.33333,28.416628247070314,12.58714,28.416628247070314,11.66667C28.416628247070314,10.746192,27.83842824707031,10,27.12502824707031,10C27.12502824707031,10,27.12502824707031,13.33333,27.12502824707031,13.33333C27.12502824707031,13.33333,27.12502824707031,13.33333,27.12502824707031,13.33333ZM3.8749982470703124,13.33333C3.8749982470703124,13.33333,27.12502824707031,13.33333,27.12502824707031,13.33333C27.12502824707031,13.33333,27.12502824707031,10,27.12502824707031,10C27.12502824707031,10,3.8749982470703124,10,3.8749982470703124,10C3.8749982470703124,10,3.8749982470703124,13.33333,3.8749982470703124,13.33333C3.8749982470703124,13.33333,3.8749982470703124,13.33333,3.8749982470703124,13.33333Z" fill="#003465" fill-opacity="1"/></g></g></svg>