<svg xmlns="http://www.w3.org/2000/svg" xmlns:xlink="http://www.w3.org/1999/xlink" fill="none" version="1.1" width="47" height="63" viewBox="0 0 47 63"><defs><clipPath id="master_svg0_51_1859"><rect x="0" y="0" width="47" height="63" rx="0"/></clipPath></defs><g clip-path="url(#master_svg0_51_1859)"><g><path d="M41.125,7.875C41.125,7.875,30.2807,7.875,30.2807,7.875C30.3297,7.55508,30.3542,7.22287,30.3542,6.89062C30.3542,3.08848,27.282,0,23.5,0C19.718,0,16.6458,3.08848,16.6458,6.89062C16.6458,7.22287,16.6703,7.55508,16.7193,7.875C16.7193,7.875,5.875,7.875,5.875,7.875C2.63151,7.875,0,10.5205,0,13.7812C0,13.7812,0,57.0938,0,57.0938C0,60.3544,2.63151,63,5.875,63C5.875,63,41.125,63,41.125,63C44.3684,63,47,60.3544,47,57.0938C47,57.0938,47,13.7812,47,13.7812C47,10.5205,44.3684,7.875,41.125,7.875C41.125,7.875,41.125,7.875,41.125,7.875ZM23.5,3.9375C25.1279,3.9375,26.4375,5.25412,26.4375,6.89062C26.4375,8.52717,25.1279,9.84375,23.5,9.84375C21.8721,9.84375,20.5625,8.52717,20.5625,6.89062C20.5625,5.25412,21.8721,3.9375,23.5,3.9375C23.5,3.9375,23.5,3.9375,23.5,3.9375ZM43.0833,57.0938C43.0833,58.1766,42.2021,59.0625,41.125,59.0625C41.125,59.0625,5.875,59.0625,5.875,59.0625C4.79792,59.0625,3.91667,58.1766,3.91667,57.0938C3.91667,57.0938,3.91667,13.7812,3.91667,13.7812C3.91667,12.6984,4.79792,11.8125,5.875,11.8125C5.875,11.8125,11.75,11.8125,11.75,11.8125C11.75,11.8125,11.75,14.2734,11.75,14.2734C11.75,15.0855,12.4109,15.75,13.2188,15.75C13.2188,15.75,33.7812,15.75,33.7812,15.75C34.5891,15.75,35.25,15.0855,35.25,14.2734C35.25,14.2734,35.25,11.8125,35.25,11.8125C35.25,11.8125,41.125,11.8125,41.125,11.8125C42.2021,11.8125,43.0833,12.6984,43.0833,13.7812C43.0833,13.7812,43.0833,57.0938,43.0833,57.0938C43.0833,57.0938,43.0833,57.0938,43.0833,57.0938ZM13.7083,40.3594C12.0805,40.3594,10.7708,41.6761,10.7708,43.3125C10.7708,44.9489,12.0805,46.2656,13.7083,46.2656C15.3362,46.2656,16.6458,44.9489,16.6458,43.3125C16.6458,41.6761,15.3362,40.3594,13.7083,40.3594C13.7083,40.3594,13.7083,40.3594,13.7083,40.3594ZM34.2708,41.3438C34.2708,41.3438,20.5625,41.3438,20.5625,41.3438C20.024,41.3438,19.5833,41.7867,19.5833,42.3281C19.5833,42.3281,19.5833,44.2969,19.5833,44.2969C19.5833,44.8383,20.024,45.2812,20.5625,45.2812C20.5625,45.2812,34.2708,45.2812,34.2708,45.2812C34.8094,45.2812,35.25,44.8383,35.25,44.2969C35.25,44.2969,35.25,42.3281,35.25,42.3281C35.25,41.7867,34.8094,41.3438,34.2708,41.3438C34.2708,41.3438,34.2708,41.3438,34.2708,41.3438ZM15.4464,33.2719C15.4464,33.2719,23.3042,25.4461,23.3042,25.4461C23.5612,25.1877,23.5612,24.7694,23.3042,24.5109C23.3042,24.5109,21.762,22.9482,21.762,22.9482C21.5049,22.6898,21.0888,22.6898,20.8318,22.9482C20.8318,22.9482,15.0057,28.756,15.0057,28.756C15.0057,28.756,12.4844,26.1844,12.4844,26.1844C12.2274,25.926,11.8112,25.926,11.5542,26.1844C11.5542,26.1844,9.99972,27.7348,9.99972,27.7348C9.74271,27.9932,9.74271,28.4115,9.99972,28.6699C9.99972,28.6699,14.5406,33.2719,14.5406,33.2719C14.7732,33.5303,15.1893,33.5303,15.4464,33.2719C15.4464,33.2719,15.4464,33.2719,15.4464,33.2719C15.4464,33.2719,15.4464,33.2719,15.4464,33.2719ZM34.2708,29.5312C34.2708,29.5312,24.7729,29.5312,24.7729,29.5312C24.7729,29.5312,20.8196,33.4688,20.8196,33.4688C20.8196,33.4688,34.2708,33.4688,34.2708,33.4688C34.8094,33.4688,35.25,33.0258,35.25,32.4844C35.25,32.4844,35.25,30.5156,35.25,30.5156C35.25,29.9742,34.8094,29.5312,34.2708,29.5312C34.2708,29.5312,34.2708,29.5312,34.2708,29.5312Z" fill="#E19EBA" fill-opacity="0.3499999940395355"/></g></g></svg>