<svg xmlns="http://www.w3.org/2000/svg" xmlns:xlink="http://www.w3.org/1999/xlink" fill="none" version="1.1" width="40" height="40" viewBox="0 0 40 40"><defs><clipPath id="master_svg0_31_2482"><rect x="0" y="0" width="40" height="40" rx="0"/></clipPath><linearGradient x1="0.5" y1="0" x2="0.5" y2="1" id="master_svg1_31_3135"><stop offset="0%" stop-color="#2B54DD" stop-opacity="0.9900000095367432"/><stop offset="100%" stop-color="#A34C4C" stop-opacity="0.3700000047683716"/></linearGradient></defs><g clip-path="url(#master_svg0_31_2482)"><g><g></g><g><path d="M28.333354345703125,11.6666659375C22.774854345703126,11.6662059375,17.798754345703124,15.1128359375,15.845054345703126,20.3166359375L18.968354345703126,21.4883359375C20.670754345703124,16.9670359375,25.361254345703124,14.3085359375,30.114954345703126,15.1705359375C34.868554345703124,16.0325359375,38.326854345703126,20.1688359375,38.33335434570313,25.0000359375C38.33335434570313,30.5228359375,33.856154345703125,35.0000359375,28.333354345703125,35.0000359375L11.666654345703124,35.0000359375C6.791194345703125,35.0030359375,2.624146345703125,31.4897359375,1.803181345703125,26.6838359375C0.982216345703125,21.8780359375,3.746654345703125,17.1806359375,8.346674345703125,15.5650359375C8.051004345703124,9.602305937499999,12.304454345703125,4.3784759375,18.203254345703126,3.4595729375C24.102154345703124,2.5406739375000003,29.742954345703126,6.2232359375,31.275054345703126,11.9933359375C30.309554345703123,11.7759759375,29.322954345703124,11.6664159375,28.333354345703125,11.6666659375Z" fill="url(#master_svg1_31_3135)" fill-opacity="1"/></g></g></g></svg>