<svg xmlns="http://www.w3.org/2000/svg" xmlns:xlink="http://www.w3.org/1999/xlink" fill="none" version="1.1" width="72" height="51" viewBox="0 0 72 51"><g><path d="M34.74,8.4919C34.74,8.4919,33.3113,7.45601,33.3113,7.45601C32.9062,7.16004,32.3438,7.25114,32.0512,7.6609C27.5625,14.138,25.1887,21.5485,25.1887,29.1411C25.1887,36.7338,27.5625,44.144,32.0512,50.6214C32.3325,51.0312,32.9062,51.1222,33.3113,50.8261C33.3113,50.8261,34.74,49.7901,34.74,49.7901C35.1225,49.5056,35.2125,48.9705,34.9312,48.5837C30.8587,42.7099,28.7213,36.0052,28.7213,29.1411C28.7213,22.277,30.87,15.5836,34.9312,9.69852C35.2125,9.31149,35.1337,8.77646,34.74,8.4919C34.74,8.4919,34.74,8.4919,34.74,8.4919C34.74,8.4919,34.74,8.4919,34.74,8.4919ZM25.2,0.910659C25.2,0.409797,24.795,0,24.3,0C24.3,0,18,0,18,0C13.0275,0,9,4.0752,9,9.10659C9,9.10659,9,18.2132,9,18.2132C9,18.2132,0.9,18.2132,0.9,18.2132C0.405,18.2132,0,18.623,0,19.1238C0,19.1238,0,20.9452,0,20.9452C0,21.446,0.405,21.8558,0.9,21.8558C0.9,21.8558,9,21.8558,9,21.8558C9,21.8558,9,38.2477,9,38.2477C9,41.2642,6.58123,43.7117,3.6,43.7117C3.6,43.7117,0.9,43.7117,0.9,43.7117C0.405,43.7117,0,44.1215,0,44.6223C0,44.6223,0,46.4436,0,46.4436C0,46.9445,0.405,47.3543,0.9,47.3543C0.9,47.3543,3.6,47.3543,3.6,47.3543C8.5725,47.3543,12.6,43.2789,12.6,38.2477C12.6,38.2477,12.6,21.8558,12.6,21.8558C12.6,21.8558,20.7,21.8558,20.7,21.8558C21.195,21.8558,21.6,21.446,21.6,20.9452C21.6,20.9452,21.6,19.1238,21.6,19.1238C21.6,18.623,21.195,18.2132,20.7,18.2132C20.7,18.2132,12.6,18.2132,12.6,18.2132C12.6,18.2132,12.6,9.10659,12.6,9.10659C12.6,6.09002,15.0188,3.64264,18,3.64264C18,3.64264,24.3,3.64264,24.3,3.64264C24.795,3.64264,25.2,3.23284,25.2,2.73198C25.2,2.73198,25.2,0.910659,25.2,0.910659C25.2,0.910659,25.2,0.910659,25.2,0.910659ZM65.1377,7.6609C64.8562,7.25114,64.2823,7.16004,63.8773,7.45601C63.8773,7.45601,62.4488,8.4919,62.4488,8.4919C62.0662,8.77646,61.9762,9.31149,62.2577,9.69852C66.33,15.5723,68.4673,22.277,68.4673,29.1411C68.4673,36.0052,66.3188,42.6986,62.2577,48.5837C61.9877,48.9822,62.0662,49.5169,62.4488,49.7901C62.4488,49.7901,63.8773,50.8261,63.8773,50.8261C64.2823,51.1222,64.8562,51.0312,65.1377,50.6214C69.6262,44.144,72,36.7338,72,29.1411C72,21.5485,69.6262,14.138,65.1377,7.6609C65.1377,7.6609,65.1377,7.6609,65.1377,7.6609C65.1377,7.6609,65.1377,7.6609,65.1377,7.6609ZM57.3412,21.5826C57.3412,21.5826,56.07,20.2963,56.07,20.2963C55.7212,19.9434,55.1477,19.9434,54.7988,20.2963C54.7988,20.2963,48.6112,26.5571,48.6112,26.5571C48.6112,26.5571,42.4238,20.2963,42.4238,20.2963C42.075,19.9434,41.5012,19.9434,41.1523,20.2963C41.1523,20.2963,39.8812,21.5826,39.8812,21.5826C39.5323,21.9355,39.5323,22.5161,39.8812,22.8689C39.8812,22.8689,46.0688,29.1297,46.0688,29.1297C46.0688,29.1297,39.8812,35.3905,39.8812,35.3905C39.5323,35.7434,39.5323,36.3239,39.8812,36.6766C39.8812,36.6766,41.1523,37.9632,41.1523,37.9632C41.5012,38.3158,42.075,38.3158,42.4238,37.9632C42.4238,37.9632,48.6112,31.7023,48.6112,31.7023C48.6112,31.7023,54.7988,37.9632,54.7988,37.9632C55.1477,38.3158,55.7212,38.3158,56.07,37.9632C56.07,37.9632,57.3412,36.6766,57.3412,36.6766C57.69,36.3239,57.69,35.7434,57.3412,35.3905C57.3412,35.3905,51.1538,29.1297,51.1538,29.1297C51.1538,29.1297,57.3412,22.8689,57.3412,22.8689C57.69,22.5161,57.69,21.9469,57.3412,21.5826C57.3412,21.5826,57.3412,21.5826,57.3412,21.5826C57.3412,21.5826,57.3412,21.5826,57.3412,21.5826Z" fill="#FFFFFF" fill-opacity="0.5686274766921997"/></g></svg>