<svg xmlns="http://www.w3.org/2000/svg" xmlns:xlink="http://www.w3.org/1999/xlink" fill="none" version="1.1" width="28" height="40" viewBox="0 0 28 40"><defs><clipPath id="master_svg0_32_1864"><rect x="0" y="0" width="28" height="40" rx="0"/></clipPath></defs><g clip-path="url(#master_svg0_32_1864)"><g><path d="M3.4999982470703124,26.666656494140625C2.8556622470703124,26.666656494140625,2.3333282470703125,27.412848494140626,2.3333282470703125,28.333326494140625C2.3333282470703125,29.253796494140627,2.8556622470703124,29.999986494140625,3.4999982470703124,29.999986494140625C3.4999982470703124,29.999986494140625,3.4999982470703124,26.666656494140625,3.4999982470703124,26.666656494140625C3.4999982470703124,26.666656494140625,3.4999982470703124,26.666656494140625,3.4999982470703124,26.666656494140625ZM24.50002824707031,29.999986494140625C25.144328247070312,29.999986494140625,25.666628247070314,29.253796494140627,25.666628247070314,28.333326494140625C25.666628247070314,27.412848494140626,25.144328247070312,26.666656494140625,24.50002824707031,26.666656494140625C24.50002824707031,26.666656494140625,24.50002824707031,29.999986494140625,24.50002824707031,29.999986494140625C24.50002824707031,29.999986494140625,24.50002824707031,29.999986494140625,24.50002824707031,29.999986494140625ZM3.4999982470703124,29.999986494140625C3.4999982470703124,29.999986494140625,24.50002824707031,29.999986494140625,24.50002824707031,29.999986494140625C24.50002824707031,29.999986494140625,24.50002824707031,26.666656494140625,24.50002824707031,26.666656494140625C24.50002824707031,26.666656494140625,3.4999982470703124,26.666656494140625,3.4999982470703124,26.666656494140625C3.4999982470703124,26.666656494140625,3.4999982470703124,29.999986494140625,3.4999982470703124,29.999986494140625C3.4999982470703124,29.999986494140625,3.4999982470703124,29.999986494140625,3.4999982470703124,29.999986494140625Z" fill="#7A9FBA" fill-opacity="1"/></g><g><path d="M3.4999982470703124,18.333343505859375C2.8556622470703124,18.333343505859375,2.3333282470703125,19.079535505859376,2.3333282470703125,20.000013505859375C2.3333282470703125,20.920483505859377,2.8556622470703124,21.666673505859375,3.4999982470703124,21.666673505859375C3.4999982470703124,21.666673505859375,3.4999982470703124,18.333343505859375,3.4999982470703124,18.333343505859375C3.4999982470703124,18.333343505859375,3.4999982470703124,18.333343505859375,3.4999982470703124,18.333343505859375ZM24.50002824707031,21.666673505859375C25.144328247070312,21.666673505859375,25.666628247070314,20.920483505859377,25.666628247070314,20.000013505859375C25.666628247070314,19.079535505859376,25.144328247070312,18.333343505859375,24.50002824707031,18.333343505859375C24.50002824707031,18.333343505859375,24.50002824707031,21.666673505859375,24.50002824707031,21.666673505859375C24.50002824707031,21.666673505859375,24.50002824707031,21.666673505859375,24.50002824707031,21.666673505859375ZM3.4999982470703124,21.666673505859375C3.4999982470703124,21.666673505859375,24.50002824707031,21.666673505859375,24.50002824707031,21.666673505859375C24.50002824707031,21.666673505859375,24.50002824707031,18.333343505859375,24.50002824707031,18.333343505859375C24.50002824707031,18.333343505859375,3.4999982470703124,18.333343505859375,3.4999982470703124,18.333343505859375C3.4999982470703124,18.333343505859375,3.4999982470703124,21.666673505859375,3.4999982470703124,21.666673505859375C3.4999982470703124,21.666673505859375,3.4999982470703124,21.666673505859375,3.4999982470703124,21.666673505859375Z" fill="#7A9FBA" fill-opacity="1"/></g><g><path d="M3.4999982470703124,10C2.8556622470703124,10,2.3333282470703125,10.746192,2.3333282470703125,11.66667C2.3333282470703125,12.58714,2.8556622470703124,13.33333,3.4999982470703124,13.33333C3.4999982470703124,13.33333,3.4999982470703124,10,3.4999982470703124,10C3.4999982470703124,10,3.4999982470703124,10,3.4999982470703124,10ZM24.50002824707031,13.33333C25.144328247070312,13.33333,25.666628247070314,12.58714,25.666628247070314,11.66667C25.666628247070314,10.746192,25.144328247070312,10,24.50002824707031,10C24.50002824707031,10,24.50002824707031,13.33333,24.50002824707031,13.33333C24.50002824707031,13.33333,24.50002824707031,13.33333,24.50002824707031,13.33333ZM3.4999982470703124,13.33333C3.4999982470703124,13.33333,24.50002824707031,13.33333,24.50002824707031,13.33333C24.50002824707031,13.33333,24.50002824707031,10,24.50002824707031,10C24.50002824707031,10,3.4999982470703124,10,3.4999982470703124,10C3.4999982470703124,10,3.4999982470703124,13.33333,3.4999982470703124,13.33333C3.4999982470703124,13.33333,3.4999982470703124,13.33333,3.4999982470703124,13.33333Z" fill="#7A9FBA" fill-opacity="1"/></g></g></svg>