<svg xmlns="http://www.w3.org/2000/svg" xmlns:xlink="http://www.w3.org/1999/xlink" fill="none" version="1.1" width="72" height="55" viewBox="0 0 72 55"><g><path d="M66,0C66,0,14,0,14,0C10.6862,0,8,2.63828,8,5.89286C8,5.89286,8,7.85714,8,7.85714C8,7.85714,6,7.85714,6,7.85714C2.68625,7.85714,0,10.4954,0,13.75C0,13.75,0,49.1071,0,49.1071C0,52.3616,2.68625,55,6,55C6,55,58,55,58,55C61.3136,55,64,52.3616,64,49.1071C64,49.1071,64,47.1429,64,47.1429C64,47.1429,66,47.1429,66,47.1429C69.3136,47.1429,72,44.5044,72,41.25C72,41.25,72,5.89286,72,5.89286C72,2.63828,69.3136,0,66,0C66,0,66,0,66,0ZM60,49.1071C60,50.1903,59.1028,51.0714,58,51.0714C58,51.0714,6,51.0714,6,51.0714C4.89724,51.0714,4,50.1903,4,49.1071C4,49.1071,4,13.75,4,13.75C4,12.6669,4.89724,11.7857,6,11.7857C6,11.7857,8,11.7857,8,11.7857C8,11.7857,8,41.25,8,41.25C8,44.5044,10.6862,47.1429,14,47.1429C14,47.1429,60,47.1429,60,47.1429C60,47.1429,60,49.1071,60,49.1071C60,49.1071,60,49.1071,60,49.1071ZM68,41.25C68,42.3331,67.1028,43.2143,66,43.2143C66,43.2143,14,43.2143,14,43.2143C12.8972,43.2143,12,42.3331,12,41.25C12,41.25,12,5.89286,12,5.89286C12,4.80979,12.8972,3.92857,14,3.92857C14,3.92857,66,3.92857,66,3.92857C67.1028,3.92857,68,4.80979,68,5.89286C68,5.89286,68,41.25,68,41.25C68,41.25,68,41.25,68,41.25ZM22,20.625C25.866,20.625,29,17.547,29,13.75C29,9.95304,25.866,6.875,22,6.875C18.134,6.875,15,9.95304,15,13.75C15,17.547,18.134,20.625,22,20.625C22,20.625,22,20.625,22,20.625ZM22,10.8036C23.6542,10.8036,25,12.1253,25,13.75C25,15.3747,23.6542,16.6964,22,16.6964C20.3458,16.6964,19,15.3747,19,13.75C19,12.1253,20.3458,10.8036,22,10.8036C22,10.8036,22,10.8036,22,10.8036ZM52.1212,13.6308C50.9496,12.4801,49.0504,12.4801,47.8788,13.6308C47.8788,13.6308,36,25.2974,36,25.2974C36,25.2974,32.1214,21.4879,32.1214,21.4879C30.9498,20.3372,29.0502,20.3372,27.8788,21.4879C27.8788,21.4879,16.8788,32.2915,16.8788,32.2915C16.3161,32.8441,16,33.5935,16,34.375C16,34.375,16,37.8125,16,37.8125C16,38.6261,16.6716,39.2857,17.5,39.2857C17.5,39.2857,62.5,39.2857,62.5,39.2857C63.3284,39.2857,64,38.6261,64,37.8125C64,37.8125,64,26.5179,64,26.5179C64,25.7364,63.684,24.9869,63.1212,24.4344C63.1212,24.4344,52.1212,13.6308,52.1212,13.6308C52.1212,13.6308,52.1212,13.6308,52.1212,13.6308ZM60,35.3571C60,35.3571,20,35.3571,20,35.3571C20,35.3571,20,34.7818,20,34.7818C20,34.7818,30,24.9604,30,24.9604C30,24.9604,36,30.8533,36,30.8533C36,30.8533,50,17.1033,50,17.1033C50,17.1033,60,26.9247,60,26.9247C60,26.9247,60,35.3571,60,35.3571C60,35.3571,60,35.3571,60,35.3571Z" fill="#003465" fill-opacity="0.23000000417232513"/></g></svg>