<svg xmlns="http://www.w3.org/2000/svg" xmlns:xlink="http://www.w3.org/1999/xlink" fill="none" version="1.1" width="20" height="16" viewBox="0 0 20 16"><defs><clipPath id="master_svg0_1_1906"><rect x="0" y="0" width="20" height="16" rx="0"/></clipPath></defs><g clip-path="url(#master_svg0_1_1906)"><g><path d="M19,11C19,11,17,11,17,11C17,11,17,3.5,17,3.5C17,1.57031,15.4297,0,13.5,0C13.5,0,2.5,0,2.5,0C1.12125,0,0,1.12156,0,2.5C0,2.5,0,5,0,5C0,5.55125,0.448125,6,1,6C1,6,4,6,4,6C4,6,4,13,4,13C4,14.5972,5.25781,15.8944,6.83313,15.9831C6.83313,15.9831,6.83313,16,6.83313,16C6.83313,16,16.5831,16,16.5831,16C18.4669,16,20,14.4672,20,12.5834C20,12.5834,20,12,20,12C20,11.4487,19.5519,11,19,11C19,11,19,11,19,11ZM4,5C4,5,1,5,1,5C1,5,1,2.5,1,2.5C1,1.67281,1.67281,1,2.5,1C3.32719,1,4,1.67281,4,2.5C4,2.5,4,5,4,5C4,5,4,5,4,5ZM9,13C9,14.1031,8.1025,15,7,15C5.8975,15,5,14.1031,5,13C5,13,5,2.5,5,2.5C5,1.9375,4.81344,1.41813,4.49906,1C4.49906,1,13.5,1,13.5,1C14.8787,1,16,2.12156,16,3.5C16,3.5,16,11,16,11C16,11,10,11,10,11C9.44812,11,9,11.4487,9,12C9,12,9,13,9,13C9,13,9,13,9,13ZM19,12.5834C19,13.9159,17.9159,15,16.5831,15C16.5831,15,9.21969,15,9.21969,15C9.69938,14.4681,10,13.7712,10,13C10,13,10,12,10,12C10,12,19,12,19,12C19,12,19,12.5834,19,12.5834C19,12.5834,19,12.5834,19,12.5834Z" fill="#000000" fill-opacity="1"/></g></g></svg>