<svg xmlns="http://www.w3.org/2000/svg" xmlns:xlink="http://www.w3.org/1999/xlink" fill="none" version="1.1" width="30" height="30" viewBox="0 0 30 30"><defs><clipPath id="master_svg0_31_4651"><rect x="0" y="0" width="30" height="30" rx="0"/></clipPath></defs><g clip-path="url(#master_svg0_31_4651)"><g transform="matrix(-1,0,0,-1,37.5,17.5)"><path d="M20,8.75C19.309644,8.75,18.75,9.309644,18.75,10C18.75,10.69036,19.309644,11.25,20,11.25C20,11.25,20,8.75,20,8.75C20,8.75,20,8.75,20,8.75ZM33.75,11.25C34.4404,11.25,35,10.69036,35,10C35,9.309644,34.4404,8.75,33.75,8.75C33.75,8.75,33.75,11.25,33.75,11.25C33.75,11.25,33.75,11.25,33.75,11.25ZM20,11.25C20,11.25,33.75,11.25,33.75,11.25C33.75,11.25,33.75,8.75,33.75,8.75C33.75,8.75,20,8.75,20,8.75C20,8.75,20,11.25,20,11.25C20,11.25,20,11.25,20,11.25Z" fill="#B6E0FF" fill-opacity="1"/></g><g transform="matrix(-1,0,0,-1,55,17.5)"><path d="M28.75,8.75C28.059644,8.75,27.5,9.309644,27.5,10C27.5,10.69036,28.059644,11.25,28.75,11.25C28.75,11.25,28.75,8.75,28.75,8.75C28.75,8.75,28.75,8.75,28.75,8.75ZM32.5,11.25C33.19035,11.25,33.75,10.69036,33.75,10C33.75,9.309644,33.19035,8.75,32.5,8.75C32.5,8.75,32.5,11.25,32.5,11.25C32.5,11.25,32.5,11.25,32.5,11.25ZM28.75,11.25C28.75,11.25,32.5,11.25,32.5,11.25C32.5,11.25,32.5,8.75,32.5,8.75C32.5,8.75,28.75,8.75,28.75,8.75C28.75,8.75,28.75,11.25,28.75,11.25C28.75,11.25,28.75,11.25,28.75,11.25Z" fill="#B6E0FF" fill-opacity="1"/></g><g transform="matrix(-1,0,0,-1,47.5,22.5)"><path d="M23.75,17.5C23.75,18.19035,24.309645,18.75,25,18.75C25.69036,18.75,26.25,18.19035,26.25,17.5C26.25,17.5,23.75,17.5,23.75,17.5C23.75,17.5,23.75,17.5,23.75,17.5ZM26.25,12.5C26.25,11.809644,25.69036,11.25,25,11.25C24.309644,11.25,23.75,11.809644,23.75,12.5C23.75,12.5,26.25,12.5,26.25,12.5C26.25,12.5,26.25,12.5,26.25,12.5ZM26.25,17.5C26.25,17.5,26.25,12.5,26.25,12.5C26.25,12.5,23.75,12.5,23.75,12.5C23.75,12.5,23.75,17.5,23.75,17.5C23.75,17.5,26.25,17.5,26.25,17.5C26.25,17.5,26.25,17.5,26.25,17.5Z" fill="#B6E0FF" fill-opacity="1"/></g><g transform="matrix(-1,0,0,-1,12.5,32.5)"><path d="M7.5,16.25C6.8096440000000005,16.25,6.25,16.809644,6.25,17.5C6.25,18.19036,6.8096440000000005,18.75,7.5,18.75C7.5,18.75,7.5,16.25,7.5,16.25C7.5,16.25,7.5,16.25,7.5,16.25ZM8.75,18.75C9.44035,18.75,10,18.19036,10,17.5C10,16.809644,9.44035,16.25,8.75,16.25C8.75,16.25,8.75,18.75,8.75,18.75C8.75,18.75,8.75,18.75,8.75,18.75ZM7.5,18.75C7.5,18.75,8.75,18.75,8.75,18.75C8.75,18.75,8.75,16.25,8.75,16.25C8.75,16.25,7.5,16.25,7.5,16.25C7.5,16.25,7.5,18.75,7.5,18.75C7.5,18.75,7.5,18.75,7.5,18.75Z" fill="#B6E0FF" fill-opacity="1"/></g><g transform="matrix(-1,0,0,-1,55,32.5)"><path d="M28.75,16.25C28.059644,16.25,27.5,16.809644,27.5,17.5C27.5,18.19036,28.059644,18.75,28.75,18.75C28.75,18.75,28.75,16.25,28.75,16.25C28.75,16.25,28.75,16.25,28.75,16.25ZM45,18.75C45.6904,18.75,46.25,18.19036,46.25,17.5C46.25,16.809644,45.6904,16.25,45,16.25C45,16.25,45,18.75,45,18.75C45,18.75,45,18.75,45,18.75ZM28.75,18.75C28.75,18.75,45,18.75,45,18.75C45,18.75,45,16.25,45,16.25C45,16.25,28.75,16.25,28.75,16.25C28.75,16.25,28.75,18.75,28.75,18.75C28.75,18.75,28.75,18.75,28.75,18.75Z" fill="#B6E0FF" fill-opacity="1"/></g><g transform="matrix(-1,0,0,-1,22.5,37.5)"><path d="M11.25,25C11.25,25.69035,11.809645,26.25,12.5,26.25C13.19036,26.25,13.75,25.69035,13.75,25C13.75,25,11.25,25,11.25,25C11.25,25,11.25,25,11.25,25ZM13.75,20C13.75,19.309644,13.19036,18.75,12.5,18.75C11.809644,18.75,11.25,19.309644,11.25,20C11.25,20,13.75,20,13.75,20C13.75,20,13.75,20,13.75,20ZM13.75,25C13.75,25,13.75,20,13.75,20C13.75,20,11.25,20,11.25,20C11.25,20,11.25,25,11.25,25C11.25,25,13.75,25,13.75,25C13.75,25,13.75,25,13.75,25Z" fill="#B6E0FF" fill-opacity="1"/></g><g transform="matrix(-1,0,0,-1,27.5,47.5)"><path d="M15,23.75C14.309644,23.75,13.75,24.309644,13.75,25C13.75,25.69036,14.309644,26.25,15,26.25C15,26.25,15,23.75,15,23.75C15,23.75,15,23.75,15,23.75ZM23.75,26.25C24.4404,26.25,25,25.69036,25,25C25,24.309644,24.4404,23.75,23.75,23.75C23.75,23.75,23.75,26.25,23.75,26.25C23.75,26.25,23.75,26.25,23.75,26.25ZM15,26.25C15,26.25,23.75,26.25,23.75,26.25C23.75,26.25,23.75,23.75,23.75,23.75C23.75,23.75,15,23.75,15,23.75C15,23.75,15,26.25,15,26.25C15,26.25,15,26.25,15,26.25Z" fill="#B6E0FF" fill-opacity="1"/></g><g transform="matrix(-1,0,0,-1,55,47.5)"><path d="M28.75,23.75C28.059644,23.75,27.5,24.309644,27.5,25C27.5,25.69036,28.059644,26.25,28.75,26.25C28.75,26.25,28.75,23.75,28.75,23.75C28.75,23.75,28.75,23.75,28.75,23.75ZM37.5,26.25C38.1904,26.25,38.75,25.69036,38.75,25C38.75,24.309644,38.1904,23.75,37.5,23.75C37.5,23.75,37.5,26.25,37.5,26.25C37.5,26.25,37.5,26.25,37.5,26.25ZM28.75,26.25C28.75,26.25,37.5,26.25,37.5,26.25C37.5,26.25,37.5,23.75,37.5,23.75C37.5,23.75,28.75,23.75,28.75,23.75C28.75,23.75,28.75,26.25,28.75,26.25C28.75,26.25,28.75,26.25,28.75,26.25Z" fill="#B6E0FF" fill-opacity="1"/></g><g transform="matrix(-1,0,0,-1,37.5,52.5)"><path d="M18.75,32.5C18.75,33.19035,19.309645,33.75,20,33.75C20.69036,33.75,21.25,33.19035,21.25,32.5C21.25,32.5,18.75,32.5,18.75,32.5C18.75,32.5,18.75,32.5,18.75,32.5ZM21.25,27.5C21.25,26.809644,20.69036,26.25,20,26.25C19.309644,26.25,18.75,26.809644,18.75,27.5C18.75,27.5,21.25,27.5,21.25,27.5C21.25,27.5,21.25,27.5,21.25,27.5ZM21.25,32.5C21.25,32.5,21.25,27.5,21.25,27.5C21.25,27.5,18.75,27.5,18.75,27.5C18.75,27.5,18.75,32.5,18.75,32.5C18.75,32.5,21.25,32.5,21.25,32.5C21.25,32.5,21.25,32.5,21.25,32.5Z" fill="#B6E0FF" fill-opacity="1"/></g></g></svg>