<svg xmlns="http://www.w3.org/2000/svg" xmlns:xlink="http://www.w3.org/1999/xlink" fill="none" version="1.1" width="228" height="80.94971466064453" viewBox="0 0 228 80.94971466064453"><g><g><path d="M37.3482,13.0098C37.3482,13.0098,19.7232,13.0098,19.7232,13.0098C19.0308,13.0098,18.4643,12.5707,18.4643,12.034C18.4643,12.034,18.4643,11.3836,18.4643,11.3836C18.4643,10.8469,19.0308,10.4078,19.7232,10.4078C19.7232,10.4078,37.3482,10.4078,37.3482,10.4078C38.0408,10.4078,38.6071,10.8469,38.6071,11.3836C38.6071,11.3836,38.6071,12.034,38.6071,12.034C38.6071,12.5707,38.0408,13.0098,37.3482,13.0098C37.3482,13.0098,37.3482,13.0098,37.3482,13.0098ZM38.6071,17.238C38.6071,17.238,38.6071,16.5875,38.6071,16.5875C38.6071,16.0508,38.0408,15.6117,37.3482,15.6117C37.3482,15.6117,19.7232,15.6117,19.7232,15.6117C19.0308,15.6117,18.4643,16.0508,18.4643,16.5875C18.4643,16.5875,18.4643,17.238,18.4643,17.238C18.4643,17.7746,19.0308,18.2137,19.7232,18.2137C19.7232,18.2137,37.3482,18.2137,37.3482,18.2137C38.0408,18.2137,38.6071,17.7746,38.6071,17.238C38.6071,17.238,38.6071,17.238,38.6071,17.238ZM45.395,39.0293C45.395,39.0293,45.7411,39.0293,45.7411,39.0293C46.4337,39.0293,47,39.4683,47,40.0051C47,40.0051,47,40.6556,47,40.6556C47,41.1923,46.4337,41.6313,45.7411,41.6313C45.7411,41.6313,8.39286,41.6313,8.39286,41.6313C3.7558,41.6313,0,38.7205,0,35.1264C0,35.1264,0,6.50489,0,6.50489C0,2.91094,3.7558,0,8.39286,0C8.39286,0,44.4821,0,44.4821,0C45.8774,0,47,0.870029,47,1.95147C47,1.95147,47,31.874,47,31.874C47,32.6871,46.3497,33.3865,45.4369,33.6792C45.0592,34.9882,44.9753,37.3867,45.395,39.0293C45.395,39.0293,45.395,39.0293,45.395,39.0293C45.395,39.0293,45.395,39.0293,45.395,39.0293ZM13.4286,31.2235C13.4286,31.2235,43.6429,31.2235,43.6429,31.2235C43.6429,31.2235,43.6429,2.60196,43.6429,2.60196C43.6429,2.60196,13.4286,2.60196,13.4286,2.60196C13.4286,2.60196,13.4286,31.2235,13.4286,31.2235C13.4286,31.2235,13.4286,31.2235,13.4286,31.2235ZM3.35714,32.5244C4.76295,31.7113,6.50446,31.2235,8.39286,31.2235C8.39286,31.2235,10.0714,31.2235,10.0714,31.2235C10.0714,31.2235,10.0714,2.60196,10.0714,2.60196C10.0714,2.60196,8.39286,2.60196,8.39286,2.60196C5.61274,2.60196,3.35714,4.35016,3.35714,6.50489C3.35714,6.50489,3.35714,32.5244,3.35714,32.5244C3.35714,32.5244,3.35714,32.5244,3.35714,32.5244ZM42.4155,39.0293C42.0902,37.3706,42.111,35.3541,42.4155,33.8254C42.4155,33.8254,8.39286,33.8254,8.39286,33.8254C1.67857,33.8254,1.67857,39.0293,8.39286,39.0293C8.39286,39.0293,42.4155,39.0293,42.4155,39.0293C42.4155,39.0293,42.4155,39.0293,42.4155,39.0293Z" fill="#FFFFFF" fill-opacity="0.5699999928474426"/></g><g><path d="M226.20600000000002,47.322339626464846C226.20600000000002,47.322339626464846,222.618,44.556239626464844,222.618,44.556239626464844C220.2262,42.71219762646484,216.3482,42.712123626464845,213.95600000000002,44.556239626464844C213.95600000000002,44.556239626464844,180.22858,70.55827962646484,180.22858,70.55827962646484C180.22858,70.55827962646484,179.0143977,78.98297962646484,179.0143977,78.98297962646484C178.851894,80.11077962646485,180.08819,81.06397962646484,181.55092,80.93857962646484C181.55092,80.93857962646484,192.4787,80.00247962646485,192.4787,80.00247962646485C192.4787,80.00247962646485,226.20600000000002,54.00037962646484,226.20600000000002,54.00037962646484C228.5979,52.15624962646484,228.5979,49.166379626464845,226.20600000000002,47.322339626464846C226.20600000000002,47.322339626464846,226.20600000000002,47.322339626464846,226.20600000000002,47.322339626464846C226.20600000000002,47.322339626464846,226.20600000000002,47.322339626464846,226.20600000000002,47.322339626464846ZM194.7609,68.79867962646485C195.359,69.25977962646485,196.3284,69.25977962646485,196.9264,68.79867962646485C196.9264,68.79867962646485,214.2188,55.467279626464844,214.2188,55.467279626464844C214.2188,55.467279626464844,217.09539999999998,57.68507962646484,217.09539999999998,57.68507962646484C217.09539999999998,57.68507962646484,195.6523,74.21677962646484,195.6523,74.21677962646484C195.6523,74.21677962646484,195.6523,71.65317962646485,195.6523,71.65317962646485C195.6523,71.65317962646485,191.0585,71.65317962646485,191.0585,71.65317962646485C191.0585,71.65317962646485,191.0585,68.11157962646485,191.0585,68.11157962646485C191.0585,68.11157962646485,187.73334,68.11157962646485,187.73334,68.11157962646485C187.73334,68.11157962646485,209.1765,51.57993962646484,209.1765,51.57993962646484C209.1765,51.57993962646484,212.0533,53.797779626464845,212.0533,53.797779626464845C212.0533,53.797779626464845,194.7609,67.12917962646485,194.7609,67.12917962646485C194.1629,67.59027962646485,194.1629,68.33777962646485,194.7609,68.79867962646485C194.7609,68.79867962646485,194.7609,68.79867962646485,194.7609,68.79867962646485ZM191.0726,77.74737962646483C191.0726,77.74737962646483,185.4266,78.23097962646484,185.4266,78.23097962646484C185.4266,78.23097962646484,182.52632,75.99507962646484,182.52632,75.99507962646484C182.52632,75.99507962646484,183.15364,71.64227962646484,183.15364,71.64227962646484C183.15364,71.64227962646484,185.05365,70.17747962646484,185.05365,70.17747962646484C185.05365,70.17747962646484,188.37886,70.17747962646484,188.37886,70.17747962646484C188.37886,70.17747962646484,188.37886,73.71907962646485,188.37886,73.71907962646485C188.37886,73.71907962646485,192.9726,73.71907962646485,192.9726,73.71907962646485C192.9726,73.71907962646485,192.9726,76.28267962646484,192.9726,76.28267962646484C192.9726,76.28267962646484,191.0726,77.74737962646483,191.0726,77.74737962646483C191.0726,77.74737962646483,191.0726,77.74737962646483,191.0726,77.74737962646483C191.0726,77.74737962646483,191.0726,77.74737962646483,191.0726,77.74737962646483ZM224.04059999999998,52.330819626464844C224.04059999999998,52.330819626464844,219.2609,56.01557962646484,219.2609,56.01557962646484C219.2609,56.01557962646484,211.3419,49.91047962646484,211.3419,49.91047962646484C211.3419,49.91047962646484,216.1215,46.22570962646484,216.1215,46.22570962646484C217.3184,45.303059626464844,219.2557,45.302909626464846,220.4525,46.22570962646484C220.4525,46.22570962646484,224.04059999999998,48.99179962646485,224.04059999999998,48.99179962646485C225.2374,49.914519626464845,225.2374,51.407939626464845,224.04059999999998,52.330819626464844C224.04059999999998,52.330819626464844,224.04059999999998,52.330819626464844,224.04059999999998,52.330819626464844C224.04059999999998,52.330819626464844,224.04059999999998,52.330819626464844,224.04059999999998,52.330819626464844Z" fill="#FFFFFF" fill-opacity="0.5686274766921997"/></g></g></svg>