<svg xmlns="http://www.w3.org/2000/svg" xmlns:xlink="http://www.w3.org/1999/xlink" fill="none" version="1.1" width="99" height="24" viewBox="0 0 99 24"><g><path d="M8.448,2.184L8.256,2.472Q8.256,2.568,7.68,3.528Q7.296,4.344,7.296,4.344Q7.296,4.344,10.416,4.344L13.536,4.344L13.488,4.824L13.488,5.304L11.664,5.304L9.84,5.304L9.84,6.552L9.888,7.824L11.568,7.824Q12.96,7.824,13.392,7.824Q13.536,7.848,13.488,8.28L13.488,8.784L11.568,8.784L9.6,8.784L9.504,9.144Q9.36,9.48,9.168,9.912Q8.928,10.344,8.592,10.824Q8.256,11.304,7.728,11.784Q7.296,12.264,6.816,12.648Q6.384,12.984,5.904,13.272Q5.52,13.512,4.992,13.776Q4.464,14.04,4.08,14.184Q3.6,14.376,3.576,14.328Q3.552,14.28,3.672,13.92Q3.792,13.56,4.176,13.368Q4.608,13.128,5.04,12.84Q5.472,12.456,5.856,12.072Q6.24,11.688,6.576,11.256Q6.912,10.824,7.152,10.344Q7.392,9.864,7.488,9.432Q7.632,9,7.632,8.904L7.632,8.784L5.568,8.784L3.552,8.784L3.504,8.328Q3.504,7.824,3.552,7.824Q3.6,7.824,5.664,7.824L7.68,7.824L7.728,6.552L7.728,5.304L7.056,5.304L6.336,5.304L5.808,5.832Q5.376,6.264,4.848,6.648Q4.368,7.032,4.032,7.224Q3.648,7.512,3.576,7.512Q3.504,7.512,3.504,7.344Q3.504,7.176,3.888,6.6Q4.128,6.216,4.704,5.256Q5.184,4.44,5.328,4.152Q5.52,3.816,5.76,3.24Q6.096,2.472,6.144,2.424L6.24,2.184L7.344,2.184L8.448,2.184ZM16.272,3.72L16.272,4.056L16.272,4.344L17.616,4.344L18.912,4.344L18.96,4.056L18.96,3.72L20.016,3.72L21.024,3.72L21.024,7.224Q21.024,10.776,20.928,11.112Q20.832,11.448,20.688,11.784Q20.544,12.072,20.352,12.264Q20.16,12.456,19.92,12.552Q19.68,12.648,19.344,12.648L18.96,12.648L18.96,11.976L18.912,11.352L17.52,11.352L16.08,11.352L15.984,11.64Q15.84,11.928,15.624,12.144Q15.408,12.36,15.168,12.504Q14.88,12.648,14.544,12.648L14.16,12.648L14.16,8.184L14.16,3.72L15.216,3.72L16.272,3.72ZM9.84,9.096Q9.84,9,9.936,9Q10.032,9,10.464,9.192Q10.944,9.432,11.328,9.672Q11.808,9.912,12.096,10.152Q12.48,10.488,12.768,10.728Q13.056,11.064,13.296,11.4Q13.536,11.736,13.632,12.072Q13.728,12.36,13.704,12.408Q13.68,12.456,12.72,12.912Q11.76,13.368,11.736,13.368Q11.712,13.368,11.712,12.984Q11.664,12.6,11.52,12.168Q11.424,11.784,11.232,11.304Q11.04,10.872,10.704,10.344Q10.464,9.96,10.128,9.528Q9.84,9.192,9.84,9.096ZM9.12,13.224L9.12,13.464L9.12,13.704L12.912,13.704L16.656,13.704L16.656,13.464L16.656,13.224L17.664,13.224L18.672,13.224L18.672,16.92Q18.672,18.504,18.672,19.32Q18.672,20.136,18.648,20.496Q18.624,20.856,18.576,21Q18.48,21.384,18.384,21.576Q18.288,21.816,18.048,22.056Q17.808,22.296,17.568,22.44Q17.28,22.5836,16.944,22.5836L16.656,22.5836L16.608,21.9225L16.608,21.216L12.816,21.216L8.976,21.216L8.88,21.48Q8.736,21.816,8.496,22.056Q8.256,22.296,7.968,22.4396Q7.68,22.5836,7.392,22.5836L7.056,22.5836L7.056,17.88L7.056,13.224L8.112,13.224L9.12,13.224ZM12.912,17.712Q9.168,17.712,9.168,17.784Q9.12,17.832,9.168,19.08L9.168,20.304L12.816,20.304Q16.416,20.304,16.56,20.28Q16.656,20.232,16.608,18.984L16.608,17.712L12.912,17.712ZM16.272,10.392L18.96,10.392L18.96,5.304L16.272,5.304L16.272,10.392ZM9.12,14.64L9.168,15.72L9.168,16.776L16.608,16.776L16.608,14.64L12.864,14.64L9.12,14.64ZM32.016,2.616L31.968,2.808Q31.968,2.952,31.728,3.528Q31.536,4.104,31.392,4.584L31.2,5.064L32.592,5.064L33.984,5.064L33.984,4.68L33.984,4.296L35.664,4.296L37.344,4.296L37.344,4.728L37.344,5.232L35.856,5.232L34.368,5.232L34.32,5.592L34.32,6L32.544,6L30.816,6L30.384,6.984Q29.952,8.016,29.952,8.016Q29.952,8.016,32.016,8.016L34.032,8.016L34.032,8.52L34.032,8.976L33.024,8.976L32.016,8.976L32.016,10.728L32.016,12.456L33.024,12.456L34.032,12.456L34.032,12.888L34.032,13.344L33.024,13.344L32.016,13.344L32.016,16.536Q32.016,19.704,32.064,19.704Q32.112,19.704,32.928,19.248Q33.744,18.792,33.744,18.792Q33.84,18.84,34.032,19.2Q34.224,19.56,34.2,19.584Q34.176,19.608,32.928,20.328Q31.68,21.048,31.44,21.288Q31.2,21.528,30.912,21.672Q30.672,21.8156,30.552,21.8156Q30.432,21.8156,30.048,22.008Q29.712,22.2,29.712,22.152Q29.712,22.152,29.664,22.104Q29.616,22.056,29.568,21.96Q29.52,21.864,29.472,21.768Q29.28,21.384,29.376,21.336Q29.424,21.288,29.712,21.144L29.952,20.9524L29.952,17.16L29.952,13.344L29.376,13.344L28.848,13.344L28.848,12.888L28.848,12.456L29.376,12.456L29.904,12.456L29.904,10.728L29.904,8.976L29.712,8.976L29.472,8.976L29.184,9.528Q28.896,10.008,28.56,10.584Q28.224,11.16,27.792,11.736Q27.408,12.264,27.072,12.648Q26.736,12.984,26.52,13.104Q26.304,13.224,26.184,13.272Q26.064,13.32,26.064,13.224Q26.064,13.128,26.304,12.648Q26.544,12.168,26.928,11.352Q27.264,10.536,27.648,9.528Q28.08,8.472,28.368,7.704Q28.608,6.888,28.848,6.072Q29.04,5.352,29.232,4.488Q29.376,3.768,29.472,3.192L29.52,2.616L30.768,2.616L32.016,2.616ZM43.2,3.096L43.152,3.192Q42.912,4.008,42.864,4.104Q42.624,4.896,42.624,4.896Q42.624,4.896,44.784,4.896L46.896,4.896L46.896,5.4L46.896,5.88L44.592,5.88Q42.336,5.88,42.288,5.976Q42.048,6.792,41.712,7.8Q41.184,9.528,40.992,9.912L40.8,10.296L41.376,10.296L41.952,10.296L41.952,9.048L42,7.8L43.008,7.8L44.016,7.8L44.064,9.048L44.064,10.296L45.12,10.296L46.128,10.296L46.128,10.776L46.128,11.208L45.12,11.208L44.064,11.208L44.064,12.84L44.064,14.424L45.744,14.424L47.424,14.424L47.424,14.856L47.424,15.288L45.744,15.288L44.064,15.288L44.064,16.728Q44.064,18.168,43.992,18.504Q43.92,18.84,43.776,19.08Q43.68,19.272,43.488,19.512Q43.296,19.704,42.96,19.896Q42.624,20.04,42.288,20.04L42,20.04L41.952,17.688L41.952,15.288L39.84,15.288L37.728,15.288L37.728,14.856L37.728,14.424L39.84,14.424L41.952,14.424L41.952,12.84L41.952,11.208L40.8,11.208Q39.648,11.208,39.312,11.4Q38.928,11.592,38.544,11.592Q38.16,11.64,38.16,11.592Q38.16,11.544,39.12,8.712L40.128,5.88L38.928,5.88L37.728,5.88L37.728,5.4L37.728,4.896L39.072,4.896Q40.416,4.896,40.464,4.824Q40.512,4.776,40.752,4.056Q40.848,3.816,41.04,3.192L41.088,3.096L42.144,3.096L43.2,3.096ZM37.536,10.536L37.536,14.52Q37.536,18.552,37.464,18.744Q37.392,18.936,37.536,19.176Q37.68,19.416,38.016,19.704Q38.304,20.04,38.64,20.232Q38.928,20.376,39.312,20.568Q39.552,20.664,39.936,20.76Q40.272,20.856,43.968,20.856L47.616,20.856L47.616,21.288L47.616,21.72L43.728,21.72Q39.888,21.72,39.36,21.624Q38.88,21.528,38.544,21.384Q38.208,21.288,37.824,21.144Q37.488,20.952,37.08,20.544Q36.672,20.136,36.624,20.136Q36.576,20.136,36.48,20.232Q36.432,20.328,36.096,20.568Q35.808,20.76,35.328,20.952Q34.896,21.144,34.416,21.288Q33.888,21.384,33.552,21.432L33.216,21.4804L33.216,20.952L33.216,20.424L33.552,20.424Q33.888,20.376,34.128,20.28Q34.368,20.136,34.632,19.896Q34.896,19.656,35.088,19.32Q35.232,19.032,35.328,18.648Q35.424,18.312,35.472,14.904L35.472,11.448L34.752,11.448L33.984,11.448L33.984,10.968L33.984,10.536L35.76,10.536L37.536,10.536ZM61.488,3.048Q61.968,3.048,61.968,3.096Q62.016,3.192,62.112,3.672Q62.208,4.248,62.352,4.68Q62.496,5.112,62.688,5.496Q62.832,5.832,62.808,5.856Q62.784,5.88,62.328,5.712Q61.872,5.544,61.536,5.352Q61.152,5.16,60.888,4.92Q60.624,4.68,60.408,4.368Q60.192,4.056,60.12,3.768Q60.048,3.48,60.048,3.288L60,3.096L60.528,3.048Q60.96,3.048,61.488,3.048ZM70.752,6.12L70.752,6.6L70.752,7.032L68.736,7.032L66.672,7.032L66.672,9.144Q66.672,11.304,66.576,11.832Q66.48,12.312,66.288,12.936Q66.144,13.464,65.856,13.992Q65.568,14.52,65.28,14.952Q64.944,15.384,64.512,15.864Q64.08,16.344,63.744,16.68L63.408,16.968L63.504,17.064Q63.648,17.208,64.176,17.544Q64.656,17.928,65.28,18.264Q65.712,18.552,66.48,18.984Q67.104,19.32,67.968,19.704Q68.736,20.088,69.552,20.376L70.272,20.712L70.272,21.096Q70.272,21.528,70.248,21.528Q70.224,21.528,69.432,21.312Q68.64,21.096,67.776,20.808Q66.96,20.52,65.952,20.136Q64.992,19.752,64.128,19.32Q63.168,18.888,62.544,18.504Q61.92,18.12,61.848,18.12Q61.776,18.12,61.248,18.456Q60.624,18.84,59.904,19.224Q59.184,19.56,58.368,19.896Q57.6,20.232,56.736,20.52Q55.776,20.904,54.768,21.144Q53.856,21.432,53.184,21.576Q52.656,21.72,52.56,21.72Q52.56,21.72,52.56,21.48L52.56,21.192L53.424,20.856Q54.288,20.52,54.912,20.232Q55.392,20.04,56.208,19.656Q56.88,19.32,57.456,18.984Q58.08,18.648,58.608,18.312Q59.28,17.88,59.616,17.64Q60,17.352,60.24,17.16L60.384,17.064L59.616,16.248Q58.8,15.48,58.44,14.952Q58.08,14.424,57.792,13.896Q57.504,13.32,57.408,12.936Q57.216,12.456,57.168,12.072Q57.072,11.688,57.024,9.384L57.024,7.032L54.528,7.032L52.032,7.032L52.032,6.6L52.032,6.12L61.392,6.12L70.752,6.12ZM59.088,7.032L59.136,9.048Q59.136,11.112,59.28,11.592Q59.472,12.12,59.568,12.408Q59.712,12.744,60,13.224Q60.288,13.752,60.72,14.328Q61.152,14.904,61.488,15.288Q61.872,15.672,61.92,15.672Q61.968,15.672,62.4,15.144Q62.832,14.664,63.264,14.04Q63.648,13.464,63.936,12.888Q64.224,12.264,64.32,11.928Q64.416,11.592,64.512,11.232Q64.608,10.872,64.608,8.952L64.608,7.032L61.824,7.032L59.088,7.032ZM91.008,2.184L91.008,4.008L91.008,5.832L93.072,5.832L95.136,5.832L95.136,6.264L95.136,6.72L93.072,6.72L91.008,6.72L91.008,7.992L91.008,9.24L92.16,9.24L93.312,9.24L93.312,9.096L93.36,8.904L94.272,8.904L95.136,8.904L95.184,14.424Q95.184,19.944,95.136,20.328Q95.088,20.712,94.92,21.048Q94.752,21.384,94.464,21.648Q94.176,21.912,93.888,22.056Q93.552,22.248,93.456,22.248L93.36,22.056Q93.36,21.768,93.312,19.656L93.312,19.608L93.312,16.968L92.16,16.968L91.056,16.968L91.008,18.936Q91.008,20.952,90.864,21.24Q90.768,21.528,90.624,21.768Q90.48,22.008,90.264,22.2Q90.048,22.392,89.76,22.488Q89.52,22.5836,89.232,22.5836L88.944,22.5836L88.944,19.752L88.896,16.968L88.032,16.968L87.12,16.968L87.12,18.504Q87.12,20.136,87.072,20.52Q86.976,20.904,86.832,21.144Q86.688,21.432,86.4,21.672Q86.112,21.912,85.8,22.08Q85.488,22.248,85.392,22.248L85.344,21.672Q85.296,20.904,85.296,15.576L85.296,8.904L86.208,8.904L87.12,8.904L87.12,9.096L87.12,9.24L88.032,9.24L88.944,9.24L88.944,7.992L88.944,6.72L87.216,6.72L85.44,6.72L85.44,6.264L85.44,5.832L87.216,5.832L88.944,5.832L88.944,4.008L88.944,2.184L90,2.184L91.008,2.184ZM92.208,13.416Q91.104,13.416,91.056,13.44Q91.008,13.464,91.008,14.76L91.008,16.008L92.16,16.008L93.312,16.008L93.312,14.712L93.312,13.416L92.208,13.416ZM79.728,3.816Q80.208,2.328,80.232,2.328Q80.256,2.328,81.144,2.592Q82.032,2.856,82.128,2.904Q82.224,2.952,81.744,4.416Q81.264,5.88,81.264,5.952Q81.264,6.024,83.184,6.024L85.056,6.024L85.056,6.504L85.008,6.96L82.992,6.96L80.928,6.96L80.304,9Q79.728,10.92,79.536,11.4Q79.392,11.832,79.344,11.976Q79.296,12.024,79.44,12.024Q79.536,12.072,79.92,12.024L80.544,12.024L80.544,10.296L80.592,8.616L81.6,8.616L82.656,8.616L82.656,10.344L82.656,12.024L83.616,12.024L84.528,12.024L84.528,12.504L84.528,12.96L83.616,12.96L82.656,12.96L82.656,14.856L82.656,16.728L83.904,16.728L85.104,16.728L85.104,17.16L85.104,17.616L83.856,17.616L82.656,17.616L82.656,19.08Q82.656,20.52,82.584,20.856Q82.512,21.192,82.344,21.504Q82.176,21.816,81.936,22.032Q81.696,22.248,81.48,22.3436Q81.264,22.4396,80.928,22.4396L80.592,22.4396L80.592,20.04L80.592,17.616L78.96,17.616L77.328,17.616L77.328,17.16L77.328,16.728L78.96,16.728L80.544,16.728L80.544,14.856L80.544,12.96L79.536,12.96Q78.528,12.96,78.24,13.08Q77.952,13.176,77.76,13.224Q77.52,13.272,77.184,13.176Q76.848,13.08,76.848,13.008Q76.848,12.936,77.232,11.64Q77.376,11.256,77.736,10.152Q78.096,9.048,78.192,8.712Q78.72,7.032,78.72,7.008Q78.72,6.984,77.76,6.96L76.8,6.96L76.8,6.504L76.8,6.024L77.904,6.024L79.008,6.024L79.152,5.688Q79.152,5.592,79.248,5.328Q79.344,5.064,79.488,4.608Q79.632,4.152,79.728,3.816ZM94.56,3.192L94.56,3.336Q94.56,3.48,94.512,3.816Q94.416,4.152,94.272,4.392Q94.128,4.68,93.84,4.92Q93.6,5.16,93.336,5.232Q93.072,5.304,92.784,5.304L92.496,5.304L92.496,4.248L92.496,3.192L93.552,3.192L94.56,3.192ZM87.12,12.504L88.944,12.504L88.944,10.2L87.12,10.2L87.12,12.504ZM91.008,12.504L93.312,12.504L93.312,10.2L91.008,10.2L91.008,12.504ZM87.12,13.416L87.12,16.008L88.944,16.008L88.944,14.712L88.896,13.416L88.032,13.416L87.12,13.416Z" fill="#3D3D3D" fill-opacity="1"/></g></svg>